<svg preserveAspectRatio="none" width="100%" height="100%" overflow="visible" style="display: block;" viewBox="0 0 16 16" fill="none" xmlns="http://www.w3.org/2000/svg">
<g id="Icon">
<path id="Vector" d="M8.39071 8.39067L12.6667 12.6667" stroke="var(--stroke-0, #99A1AF)" stroke-width="1.33333" stroke-linecap="round" stroke-linejoin="round"/>
<path id="Vector_2" d="M2.4587 2.02466C2.398 1.99908 2.33104 1.99217 2.26639 2.00483C2.20174 2.01748 2.14233 2.04912 2.09574 2.0957C2.04916 2.14229 2.01752 2.2017 2.00487 2.26635C1.99221 2.331 1.99912 2.39796 2.0247 2.45866L6.35804 13.1247C6.38471 13.1892 6.43094 13.2437 6.49022 13.2806C6.5495 13.3175 6.61885 13.3349 6.68852 13.3303C6.7582 13.3258 6.82469 13.2995 6.87865 13.2552C6.93262 13.2109 6.97134 13.1508 6.98937 13.0833L8.03537 9.028C8.09104 8.79123 8.21041 8.5742 8.38057 8.40041C8.55072 8.22661 8.76517 8.10267 9.0007 8.042L13.0834 6.98933C13.1512 6.97173 13.2117 6.93323 13.2563 6.87928C13.301 6.82534 13.3276 6.7587 13.3322 6.68882C13.3369 6.61894 13.3194 6.54937 13.2822 6.48999C13.2451 6.4306 13.1902 6.38442 13.1254 6.358L2.4587 2.02466Z" stroke="var(--stroke-0, #99A1AF)" stroke-width="1.33333" stroke-linecap="round" stroke-linejoin="round"/>
</g>
</svg>
