<svg preserveAspectRatio="none" width="100%" height="100%" overflow="visible" style="display: block;" viewBox="0 0 14 14" fill="none" xmlns="http://www.w3.org/2000/svg">
<g id="Icon">
<path id="Vector" d="M11.0833 1.75H2.91667C2.27233 1.75 1.75 2.27233 1.75 2.91667V11.0833C1.75 11.7277 2.27233 12.25 2.91667 12.25H11.0833C11.7277 12.25 12.25 11.7277 12.25 11.0833V2.91667C12.25 2.27233 11.7277 1.75 11.0833 1.75Z" stroke="var(--stroke-0, #14B8A6)" stroke-width="1.16667" stroke-linecap="round" stroke-linejoin="round"/>
<path id="Vector_2" d="M5.25 6.41667C5.89433 6.41667 6.41667 5.89433 6.41667 5.25C6.41667 4.60567 5.89433 4.08333 5.25 4.08333C4.60567 4.08333 4.08333 4.60567 4.08333 5.25C4.08333 5.89433 4.60567 6.41667 5.25 6.41667Z" stroke="var(--stroke-0, #14B8A6)" stroke-width="1.16667" stroke-linecap="round" stroke-linejoin="round"/>
<path id="Vector_3" d="M12.25 8.75L10.4498 6.94983C10.2311 6.73112 9.93436 6.60825 9.625 6.60825C9.31564 6.60825 9.01895 6.73112 8.80017 6.94983L3.5 12.25" stroke="var(--stroke-0, #14B8A6)" stroke-width="1.16667" stroke-linecap="round" stroke-linejoin="round"/>
</g>
</svg>
