<svg preserveAspectRatio="none" width="100%" height="100%" overflow="visible" style="display: block;" viewBox="0 0 13.2751 14.6428" fill="none" xmlns="http://www.w3.org/2000/svg">
<path id="Vector" d="M5.08491 2.07905C5.12164 1.69261 5.30113 1.33375 5.58831 1.07257C5.87549 0.811392 6.24973 0.666667 6.63791 0.666667C7.02609 0.666667 7.40033 0.811392 7.68751 1.07257C7.97469 1.33375 8.15418 1.69261 8.19091 2.07905C8.21299 2.32869 8.29488 2.56933 8.42966 2.78061C8.56445 2.99189 8.74815 3.16759 8.96522 3.29283C9.18229 3.41808 9.42634 3.48918 9.67671 3.50013C9.92708 3.51107 10.1764 3.46154 10.4036 3.35572C10.7563 3.19557 11.156 3.17239 11.5249 3.29071C11.8938 3.40902 12.2055 3.66035 12.3993 3.99579C12.593 4.33122 12.6551 4.72676 12.5733 5.10543C12.4916 5.48409 12.2718 5.81879 11.9569 6.04438C11.7518 6.18828 11.5844 6.37945 11.4688 6.60173C11.3533 6.82401 11.2929 7.07085 11.2929 7.32138C11.2929 7.57191 11.3533 7.81875 11.4688 8.04103C11.5844 8.26331 11.7518 8.45448 11.9569 8.59838C12.2718 8.82397 12.4916 9.15867 12.5733 9.53733C12.6551 9.916 12.593 10.3115 12.3993 10.647C12.2055 10.9824 11.8938 11.2337 11.5249 11.3521C11.156 11.4704 10.7563 11.4472 10.4036 11.287C10.1764 11.1812 9.92708 11.1317 9.67671 11.1426C9.42634 11.1536 9.18229 11.2247 8.96522 11.3499C8.74815 11.4752 8.56445 11.6509 8.42966 11.8622C8.29488 12.0734 8.21299 12.3141 8.19091 12.5637C8.15418 12.9502 7.97469 13.309 7.68751 13.5702C7.40033 13.8314 7.02609 13.9761 6.63791 13.9761C6.24973 13.9761 5.87549 13.8314 5.58831 13.5702C5.30113 13.309 5.12164 12.9502 5.08491 12.5637C5.06287 12.314 4.98097 12.0733 4.84615 11.8619C4.71133 11.6505 4.52756 11.4748 4.3104 11.3495C4.09324 11.2243 3.84909 11.1532 3.59863 11.1423C3.34817 11.1314 3.09878 11.1811 2.87157 11.287C2.51883 11.4472 2.11913 11.4704 1.75024 11.3521C1.38136 11.2337 1.06969 10.9824 0.875897 10.647C0.682104 10.3115 0.620051 9.916 0.701814 9.53733C0.783578 9.15867 1.00331 8.82397 1.31824 8.59838C1.52332 8.45448 1.69073 8.26331 1.8063 8.04103C1.92187 7.81875 1.98221 7.57191 1.98221 7.32138C1.98221 7.07085 1.92187 6.82401 1.8063 6.60173C1.69073 6.37945 1.52332 6.18828 1.31824 6.04438C1.00375 5.81868 0.784408 5.48411 0.702842 5.1057C0.621276 4.72729 0.683313 4.33208 0.876897 3.99686C1.07048 3.66164 1.38178 3.41037 1.7503 3.29188C2.11882 3.17338 2.51823 3.19614 2.87091 3.35572C3.09808 3.46154 3.3474 3.51107 3.59777 3.50013C3.84815 3.48918 4.0922 3.41808 4.30927 3.29283C4.52634 3.16759 4.71004 2.99189 4.84482 2.78061C4.9796 2.56933 5.0615 2.32869 5.08357 2.07905" stroke="var(--stroke-0, #364153)" stroke-width="1.33333" stroke-linecap="round" stroke-linejoin="round"/>
</svg>
