<svg preserveAspectRatio="none" width="100%" height="100%" overflow="visible" style="display: block;" viewBox="0 0 14.6673 10.6658" fill="none" xmlns="http://www.w3.org/2000/svg">
<path id="Vector" d="M0.708337 5.56492C0.652777 5.41525 0.652777 5.2506 0.708337 5.10092C1.24947 3.78883 2.16801 2.66695 3.34752 1.87752C4.52702 1.08809 5.91437 0.666667 7.33367 0.666667C8.75297 0.666667 10.1403 1.08809 11.3198 1.87752C12.4993 2.66695 13.4179 3.78883 13.959 5.10092C14.0146 5.2506 14.0146 5.41525 13.959 5.56492C13.4179 6.87702 12.4993 7.9989 11.3198 8.78832C10.1403 9.57775 8.75297 9.99918 7.33367 9.99918C5.91437 9.99918 4.52702 9.57775 3.34752 8.78832C2.16801 7.9989 1.24947 6.87702 0.708337 5.56492Z" stroke="var(--stroke-0, #364153)" stroke-width="1.33333" stroke-linecap="round" stroke-linejoin="round"/>
</svg>
